<?xml version="1.0" encoding="UTF-8"?>
<!DOCTYPE svg PUBLIC "-//W3C//DTD SVG 1.1//EN" "http://www.w3.org/Graphics/SVG/1.1/DTD/svg11.dtd">
<svg version="1.2" width="297mm" height="210mm" viewBox="0 0 29700 21000" preserveAspectRatio="xMidYMid" fill-rule="evenodd" stroke-width="28.222" stroke-linejoin="round" xmlns="http://www.w3.org/2000/svg" xmlns:ooo="http://xml.openoffice.org/svg/export" xmlns:xlink="http://www.w3.org/1999/xlink" xmlns:presentation="http://sun.com/xmlns/staroffice/presentation" xmlns:smil="http://www.w3.org/2001/SMIL20/" xmlns:anim="urn:oasis:names:tc:opendocument:xmlns:animation:1.0" xmlns:svg="urn:oasis:names:tc:opendocument:xmlns:svg-compatible:1.0" xml:space="preserve">
 <defs class="ClipPathGroup">
  <clipPath id="presentation_clip_path" clipPathUnits="userSpaceOnUse">
   <rect x="0" y="0" width="29700" height="21000"/>
  </clipPath>
  <clipPath id="presentation_clip_path_shrink" clipPathUnits="userSpaceOnUse">
   <rect x="29" y="21" width="29641" height="20958"/>
  </clipPath>
 </defs>
 <defs class="TextShapeIndex">
  <g ooo:slide="id1" ooo:id-list="id3 id4 id5 id6 id7 id8 id9 id10 id11"/>
 </defs>
 <defs class="EmbeddedBulletChars">
  <g id="bullet-char-template-57356" transform="scale(0.00048828125,-0.00048828125)">
   <path d="M 580,1141 L 1163,571 580,0 -4,571 580,1141 Z"/>
  </g>
  <g id="bullet-char-template-57354" transform="scale(0.00048828125,-0.00048828125)">
   <path d="M 8,1128 L 1137,1128 1137,0 8,0 8,1128 Z"/>
  </g>
  <g id="bullet-char-template-10146" transform="scale(0.00048828125,-0.00048828125)">
   <path d="M 174,0 L 602,739 174,1481 1456,739 174,0 Z M 1358,739 L 309,1346 659,739 1358,739 Z"/>
  </g>
  <g id="bullet-char-template-10132" transform="scale(0.00048828125,-0.00048828125)">
   <path d="M 2015,739 L 1276,0 717,0 1260,543 174,543 174,936 1260,936 717,1481 1274,1481 2015,739 Z"/>
  </g>
  <g id="bullet-char-template-10007" transform="scale(0.00048828125,-0.00048828125)">
   <path d="M 0,-2 C -7,14 -16,27 -25,37 L 356,567 C 262,823 215,952 215,954 215,979 228,992 255,992 264,992 276,990 289,987 310,991 331,999 354,1012 L 381,999 492,748 772,1049 836,1024 860,1049 C 881,1039 901,1025 922,1006 886,937 835,863 770,784 769,783 710,716 594,584 L 774,223 C 774,196 753,168 711,139 L 727,119 C 717,90 699,76 672,76 641,76 570,178 457,381 L 164,-76 C 142,-110 111,-127 72,-127 30,-127 9,-110 8,-76 1,-67 -2,-52 -2,-32 -2,-23 -1,-13 0,-2 Z"/>
  </g>
  <g id="bullet-char-template-10004" transform="scale(0.00048828125,-0.00048828125)">
   <path d="M 285,-33 C 182,-33 111,30 74,156 52,228 41,333 41,471 41,549 55,616 82,672 116,743 169,778 240,778 293,778 328,747 346,684 L 369,508 C 377,444 397,411 428,410 L 1163,1116 C 1174,1127 1196,1133 1229,1133 1271,1133 1292,1118 1292,1087 L 1292,965 C 1292,929 1282,901 1262,881 L 442,47 C 390,-6 338,-33 285,-33 Z"/>
  </g>
  <g id="bullet-char-template-9679" transform="scale(0.00048828125,-0.00048828125)">
   <path d="M 813,0 C 632,0 489,54 383,161 276,268 223,411 223,592 223,773 276,916 383,1023 489,1130 632,1184 813,1184 992,1184 1136,1130 1245,1023 1353,916 1407,772 1407,592 1407,412 1353,268 1245,161 1136,54 992,0 813,0 Z"/>
  </g>
  <g id="bullet-char-template-8226" transform="scale(0.00048828125,-0.00048828125)">
   <path d="M 346,457 C 273,457 209,483 155,535 101,586 74,649 74,723 74,796 101,859 155,911 209,963 273,989 346,989 419,989 480,963 531,910 582,859 608,796 608,723 608,648 583,586 532,535 482,483 420,457 346,457 Z"/>
  </g>
  <g id="bullet-char-template-8211" transform="scale(0.00048828125,-0.00048828125)">
   <path d="M -4,459 L 1135,459 1135,606 -4,606 -4,459 Z"/>
  </g>
  <g id="bullet-char-template-61548" transform="scale(0.00048828125,-0.00048828125)">
   <path d="M 173,740 C 173,903 231,1043 346,1159 462,1274 601,1332 765,1332 928,1332 1067,1274 1183,1159 1299,1043 1357,903 1357,740 1357,577 1299,437 1183,322 1067,206 928,148 765,148 601,148 462,206 346,322 231,437 173,577 173,740 Z"/>
  </g>
 </defs>
 <g>
  <g id="id2" class="Master_Slide">
   <g id="bg-id2" class="Background"/>
   <g id="bo-id2" class="BackgroundObjects"/>
  </g>
 </g>
 <g class="SlideGroup">
  <g>
   <g id="container-id1">
    <g id="id1" class="Slide" clip-path="url(#presentation_clip_path)">
     <g class="Page">
      <g class="Group">
       <g class="Group">
        <g class="com.sun.star.drawing.ClosedBezierShape">
         <g id="id3">
          <rect class="BoundingBox" stroke="none" fill="none" x="527" y="2750" width="9925" height="14916"/>
          <path fill="rgb(0,0,0)" stroke="none" d="M 1480,11202 C 1480,10863 1738,10605 2075,10605 2413,10605 2671,10864 2671,11202 2671,11540 2413,11798 2075,11798 1738,11798 1480,11540 1480,11202 Z M 8307,9213 C 8307,8875 8565,8616 8903,8616 9240,8616 9498,8874 9498,9213 9498,9551 9240,9810 8903,9810 8565,9810 8307,9551 8307,9213 Z M 4794,14722 C 4794,14045 5132,13548 5866,13548 6641,13548 7017,14165 7017,14781 7017,15318 6719,15875 6223,16053 6382,16631 6937,17068 7592,17068 8347,17068 8903,16372 8903,15577 8903,13608 7255,12236 5489,11222 4232,13369 2975,15517 1718,17665 1321,17665 924,17665 527,17665 1877,15351 3227,13038 4576,10724 2512,9571 527,8099 527,5852 527,4142 1757,2750 3386,2750 4953,2750 6184,4103 6184,5693 6184,6369 5846,6867 5112,6867 4337,6867 3961,6250 3961,5634 3961,5097 4259,4540 4755,4361 4596,3783 4041,3346 3386,3346 2630,3346 2075,4042 2075,4838 2075,6807 3723,8179 5489,9193 6746,7045 8003,4898 9260,2750 9657,2750 10054,2750 10451,2750 9101,5064 7751,7377 6402,9691 8466,10844 10451,12316 10451,14563 10451,16273 9221,17665 7592,17665 6025,17665 4794,16312 4794,14722 Z "/>
         </g>
        </g>
       </g>
       <g class="Group">
        <g class="com.sun.star.drawing.ClosedBezierShape">
         <g id="id4">
          <rect class="BoundingBox" stroke="none" fill="none" x="12290" y="12190" width="3072" height="4831"/>
          <path fill="rgb(0,0,0)" stroke="none" d="M 12297,15682 L 12525,15682 12648,16317 C 12735,16427 12884,16524 13096,16609 13307,16693 13516,16735 13722,16735 14050,16735 14305,16651 14489,16484 14673,16317 14764,16086 14764,15791 14764,15623 14729,15483 14657,15373 14586,15263 14492,15171 14377,15094 14261,15018 14129,14954 13982,14901 13834,14849 13683,14796 13527,14742 13372,14688 13220,14628 13073,14563 12925,14497 12794,14414 12678,14314 12562,14213 12469,14089 12397,13940 12326,13791 12290,13608 12290,13391 12290,13017 12431,12723 12711,12510 12992,12297 13382,12191 13880,12191 14259,12191 14671,12241 15115,12342 L 15115,13321 14887,13321 14764,12745 C 14526,12572 14231,12485 13880,12485 13566,12485 13321,12549 13145,12677 12968,12804 12880,12980 12880,13205 12880,13357 12915,13483 12987,13584 13058,13684 13152,13770 13268,13842 13383,13913 13516,13974 13664,14026 13813,14077 13965,14131 14120,14186 14276,14241 14428,14303 14577,14372 14725,14441 14857,14528 14973,14635 15089,14741 15183,14871 15254,15024 15325,15178 15361,15366 15361,15591 15361,16045 15222,16396 14943,16646 14665,16895 14264,17019 13740,17019 13487,17019 13233,16997 12978,16953 12723,16908 12496,16847 12297,16770 L 12297,15682 Z "/>
         </g>
        </g>
        <g class="com.sun.star.drawing.ClosedBezierShape">
         <g id="id5">
          <rect class="BoundingBox" stroke="none" fill="none" x="16086" y="13562" width="2662" height="3459"/>
          <path fill="rgb(0,0,0)" stroke="none" d="M 16718,15289 L 16718,15352 C 16718,15675 16754,15926 16825,16105 16896,16284 17006,16420 17155,16514 17304,16607 17498,16654 17739,16654 17866,16654 18015,16644 18188,16623 18362,16602 18504,16578 18617,16552 L 18617,16749 C 18504,16822 18352,16885 18159,16939 17966,16992 17769,17019 17567,17019 17055,17019 16680,16881 16443,16605 16205,16329 16086,15886 16086,15275 16086,14700 16207,14270 16448,13987 16689,13704 17033,13563 17480,13563 18324,13563 18746,14042 18746,15001 L 18746,15289 16718,15289 Z M 17480,13843 C 17236,13843 17050,13942 16920,14138 16790,14335 16725,14625 16725,15008 L 18136,15008 C 18136,14590 18082,14291 17974,14112 17867,13933 17702,13843 17480,13843 Z "/>
         </g>
        </g>
        <g class="com.sun.star.drawing.ClosedBezierShape">
         <g id="id6">
          <rect class="BoundingBox" stroke="none" fill="none" x="19303" y="13260" width="3150" height="5242"/>
          <path fill="rgb(0,0,0)" stroke="none" d="M 22048,14693 C 22048,15072 21935,15358 21708,15552 21481,15747 21154,15844 20728,15844 20537,15844 20359,15826 20195,15791 L 19974,16251 C 19981,16290 20027,16328 20111,16363 20195,16398 20300,16416 20427,16416 L 21402,16416 C 21758,16416 22022,16493 22194,16647 22366,16802 22452,17014 22452,17286 22452,17531 22383,17746 22246,17928 22109,18110 21909,18251 21644,18351 21380,18450 21060,18500 20683,18500 20234,18500 19891,18431 19656,18293 19421,18155 19304,17958 19304,17703 19304,17579 19346,17457 19430,17337 19514,17216 19669,17075 19893,16914 19760,16869 19648,16793 19556,16686 19465,16578 19419,16462 19419,16338 L 19974,15714 C 19604,15541 19419,15200 19419,14693 19419,14332 19534,14054 19762,13857 19990,13661 20321,13563 20757,13563 20843,13563 20954,13571 21090,13589 21226,13607 21330,13627 21402,13650 L 22178,13261 22301,13412 21813,13917 C 21970,14093 22048,14351 22048,14693 Z M 21904,17395 C 21904,17261 21863,17157 21781,17082 21699,17007 21575,16970 21409,16970 L 20132,16970 C 20034,17054 19953,17161 19891,17291 19829,17421 19798,17542 19798,17654 19798,17855 19871,18000 20016,18088 20161,18175 20383,18219 20683,18219 21074,18219 21375,18147 21587,18002 21798,17857 21904,17654 21904,17395 Z M 20735,15577 C 20991,15577 21171,15504 21278,15358 21384,15211 21437,14990 21437,14693 21437,14381 21382,14160 21272,14028 21162,13895 20986,13829 20743,13829 20497,13829 20317,13896 20202,14029 20087,14163 20030,14384 20030,14693 20030,15001 20086,15226 20199,15366 20311,15507 20490,15577 20735,15577 Z "/>
         </g>
        </g>
        <g class="com.sun.star.drawing.ClosedBezierShape">
         <g id="id7">
          <rect class="BoundingBox" stroke="none" fill="none" x="22752" y="13562" width="3322" height="3388"/>
          <path fill="rgb(0,0,0)" stroke="none" d="M 23725,13917 C 23905,13814 24097,13729 24300,13663 24504,13596 24673,13563 24809,13563 25094,13563 25310,13646 25455,13812 25600,13978 25672,14219 25672,14535 L 25672,16703 26072,16791 26072,16949 24651,16949 24651,16791 25090,16703 25090,14598 C 25090,14404 25042,14251 24948,14140 24853,14029 24706,13973 24507,13973 24297,13973 24038,14007 23732,14075 L 23732,16703 24177,16791 24177,16949 22752,16949 22752,16791 23149,16703 23149,13896 22752,13808 22752,13650 23693,13650 23725,13917 Z "/>
         </g>
        </g>
        <g class="com.sun.star.drawing.ClosedBezierShape">
         <g id="id8">
          <rect class="BoundingBox" stroke="none" fill="none" x="26453" y="13562" width="3049" height="3459"/>
          <path fill="rgb(0,0,0)" stroke="none" d="M 29500,15282 C 29500,16440 28985,17019 27956,17019 27460,17019 27086,16871 26833,16574 26580,16276 26454,15846 26454,15282 26454,14725 26580,14300 26833,14005 27086,13710 27469,13563 27984,13563 28485,13563 28863,13707 29118,13996 29373,14285 29500,14714 29500,15282 Z M 28868,15282 C 28868,14777 28795,14411 28647,14184 28500,13957 28270,13843 27956,13843 27650,13843 27428,13952 27291,14170 27154,14387 27086,14758 27086,15282 27086,15813 27155,16189 27294,16410 27434,16631 27654,16742 27956,16742 28265,16742 28494,16627 28644,16398 28794,16169 28868,15797 28868,15282 Z "/>
         </g>
        </g>
       </g>
       <g class="Group">
        <g class="com.sun.star.drawing.ClosedBezierShape">
         <g id="id9">
          <rect class="BoundingBox" stroke="none" fill="none" x="12065" y="5338" width="4698" height="4721"/>
          <path fill="rgb(0,0,0)" stroke="none" d="M 16028,7658 C 16028,7000 15851,6502 15496,6163 15142,5824 14636,5654 13978,5654 L 13347,5654 13347,9714 C 13627,9733 13961,9742 14347,9742 14922,9742 15346,9572 15619,9233 15892,8894 16028,8369 16028,7658 Z M 14203,5338 C 15071,5338 15714,5532 16133,5919 16552,6306 16761,6888 16761,7665 16761,8451 16559,9046 16156,9451 15752,9855 15149,10058 14347,10058 L 12669,10044 12066,10044 12066,9858 12669,9763 12669,5615 12066,5524 12066,5338 14203,5338 Z "/>
         </g>
        </g>
        <g class="com.sun.star.drawing.ClosedBezierShape">
         <g id="id10">
          <rect class="BoundingBox" stroke="none" fill="none" x="17300" y="6672" width="2841" height="3444"/>
          <path fill="rgb(0,0,0)" stroke="none" d="M 18680,6672 C 19040,6672 19305,6746 19474,6893 19644,7041 19729,7266 19729,7570 L 19729,9799 20139,9886 20139,10044 19234,10044 19167,9714 C 18901,9981 18560,10115 18146,10115 17582,10115 17300,9787 17300,9132 17300,8912 17343,8730 17428,8586 17514,8442 17650,8332 17837,8256 18024,8180 18296,8139 18651,8132 L 19146,8118 19146,7602 C 19146,7375 19105,7208 19022,7100 18939,6993 18811,6939 18637,6939 18403,6939 18189,6994 17995,7104 L 17876,7514 17679,7514 17679,6795 C 18058,6713 18392,6672 18680,6672 Z M 19146,8363 L 18687,8377 C 18373,8389 18161,8450 18050,8560 17938,8670 17883,8854 17883,9111 17883,9523 18050,9729 18385,9729 18544,9729 18681,9710 18797,9674 18913,9638 19029,9592 19146,9536 L 19146,8363 Z "/>
         </g>
        </g>
        <g class="com.sun.star.drawing.ClosedBezierShape">
         <g id="id11">
          <rect class="BoundingBox" stroke="none" fill="none" x="20380" y="5057" width="1711" height="4989"/>
          <path fill="rgb(0,0,0)" stroke="none" d="M 21525,9799 C 21713,9828 21902,9857 22090,9886 22090,9939 22090,9992 22090,10044 21520,10044 20950,10044 20381,10044 20381,9992 20381,9939 20381,9886 20568,9857 20755,9828 20942,9799 20942,8299 20942,6799 20942,5300 20755,5272 20568,5244 20381,5216 20381,5163 20381,5110 20381,5058 20762,5058 21144,5058 21525,5058 21525,6638 21525,8218 21525,9799 Z "/>
         </g>
        </g>
       </g>
      </g>
     </g>
    </g>
   </g>
  </g>
 </g>
</svg>